<svg width="32" height="32" viewBox="0 0 32 32" fill="none" xmlns="http://www.w3.org/2000/svg">
<path d="M16 0.25C9.24531 0.25 3.75 5.74531 3.75 12.5C3.75 15.7812 5.73794 19.995 9.65856 25.0236C11.4548 27.3216 13.4 29.499 15.4816 31.542C15.6212 31.6755 15.8069 31.75 16 31.75C16.1931 31.75 16.3788 31.6755 16.5184 31.542C18.6 29.499 20.5452 27.3216 22.3414 25.0236C26.2621 19.995 28.25 15.7812 28.25 12.5C28.25 5.74531 22.7547 0.25 16 0.25ZM16 21.25C11.175 21.25 7.25 17.325 7.25 12.5C7.25 7.675 11.175 3.75 16 3.75C20.825 3.75 24.75 7.675 24.75 12.5C24.75 17.325 20.825 21.25 16 21.25Z" fill="white"/>
<path d="M22.0055 11.445L16.5055 6.44504C16.3674 6.31954 16.1876 6.25 16.001 6.25C15.8144 6.25 15.6345 6.31954 15.4965 6.44504L9.99651 11.445C9.86838 11.5616 9.7845 11.7188 9.75909 11.8901C9.73369 12.0615 9.76833 12.2363 9.85714 12.385C9.92721 12.4982 10.0254 12.5913 10.1422 12.6553C10.2589 12.7192 10.3903 12.7519 10.5234 12.75H11.251V17.5C11.251 17.6989 11.33 17.8897 11.4707 18.0303C11.6113 18.171 11.8021 18.25 12.001 18.25H13.751C13.9499 18.25 14.1407 18.171 14.2813 18.0303C14.422 17.8897 14.501 17.6989 14.501 17.5V14.75C14.501 14.5511 14.58 14.3603 14.7207 14.2196C14.8613 14.079 15.0521 14 15.251 14H16.751C16.9499 14 17.1407 14.079 17.2813 14.2196C17.422 14.3603 17.501 14.5511 17.501 14.75V17.5C17.501 17.6989 17.58 17.8897 17.7207 18.0303C17.8613 18.171 18.0521 18.25 18.251 18.25H20.001C20.1999 18.25 20.3907 18.171 20.5313 18.0303C20.672 17.8897 20.751 17.6989 20.751 17.5V12.75H21.4786C21.6117 12.7519 21.7431 12.7192 21.8598 12.6553C21.9766 12.5913 22.0748 12.4982 22.1448 12.385C22.2337 12.2363 22.2683 12.0615 22.2429 11.8901C22.2175 11.7188 22.1336 11.5616 22.0055 11.445Z" fill="white"/>
</svg>
