<svg width="33" height="32" viewBox="0 0 33 32" fill="none" xmlns="http://www.w3.org/2000/svg">
<path d="M27.5482 14.519L17.4292 5.31978C17.1752 5.08888 16.8442 4.96094 16.501 4.96094C16.1577 4.96094 15.8268 5.08888 15.5728 5.31978L5.4537 14.519C5.21796 14.7333 5.06363 15.0227 5.01689 15.3379C4.97015 15.6531 5.03388 15.9747 5.19728 16.2483C5.32619 16.4566 5.50686 16.6279 5.72168 16.7456C5.9365 16.8633 6.17814 16.9233 6.42306 16.9198H7.76177V25.6591C7.76177 26.025 7.90715 26.376 8.16593 26.6348C8.4247 26.8936 8.77568 27.0389 9.14164 27.0389H12.3613C12.7273 27.0389 13.0783 26.8936 13.3371 26.6348C13.5958 26.376 13.7412 26.025 13.7412 25.6591V20.5995C13.7412 20.2335 13.8866 19.8826 14.1454 19.6238C14.4041 19.365 14.7551 19.2196 15.1211 19.2196H17.8808C18.2468 19.2196 18.5978 19.365 18.8566 19.6238C19.1153 19.8826 19.2607 20.2335 19.2607 20.5995V25.6591C19.2607 26.025 19.4061 26.376 19.6649 26.6348C19.9236 26.8936 20.2746 27.0389 20.6406 27.0389H23.8603C24.2262 27.0389 24.5772 26.8936 24.836 26.6348C25.0948 26.376 25.2402 26.025 25.2402 25.6591V16.9198H26.5789C26.8238 16.9233 27.0654 16.8633 27.2802 16.7456C27.4951 16.6279 27.6757 16.4566 27.8046 16.2483C27.968 15.9747 28.0318 15.6531 27.985 15.3379C27.9383 15.0227 27.784 14.7333 27.5482 14.519Z" fill="white"/>
</svg>
