<svg width="29" height="24" viewBox="0 0 29 24" fill="none" xmlns="http://www.w3.org/2000/svg">
<path d="M27.5347 0H1.46526C0.671575 0 0 0.641068 0 1.46528V6.8379C0 7.63159 0.641049 8.30316 1.46526 8.30316H2.65579V22.2842C2.65579 23.0779 3.29684 23.7495 4.12105 23.7495H24.8789C25.6726 23.7495 26.3442 23.1084 26.3442 22.2842V8.30316H27.5347C28.3284 8.30316 29 7.66211 29 6.8379V1.46528C29 0.671594 28.359 0 27.5347 0ZM21.5516 12.699C21.5516 13.3095 21.0632 13.7979 20.4526 13.7979H8.51685C7.90632 13.7979 7.41789 13.3095 7.41789 12.699V11.4169C7.41789 10.8063 7.90632 10.3179 8.51685 10.3179H20.4526C21.0632 10.3179 21.5516 10.8063 21.5516 11.4169V12.699ZM26.4358 5.70843H2.59474V2.56422H26.4358V5.70843Z" fill="white"/>
</svg>
